<?xml version="1.0" standalone="no"?>
<!DOCTYPE svg PUBLIC "-//W3C//DTD SVG 20010904//EN"
 "http://www.w3.org/TR/2001/REC-SVG-20010904/DTD/svg10.dtd">
<svg version="1.0" xmlns="http://www.w3.org/2000/svg"
 width="460.000000pt" height="460.000000pt" viewBox="0 0 460.000000 460.000000"
 preserveAspectRatio="xMidYMid meet">
<metadata>
Created by potrace 1.14, written by Peter Selinger 2001-2017
</metadata>
<g transform="translate(0.000000,460.000000) scale(0.100000,-0.100000)"
fill="#000000" stroke="none">
<path d="M54 3099 c-18 -20 -19 -48 -19 -797 l1 -777 26 -15 c58 -32 233 35
309 117 76 83 84 113 84 318 0 164 -2 185 -23 236 -24 61 -80 150 -134 212
-27 31 -30 41 -21 55 78 112 118 228 116 337 -2 176 -82 294 -221 324 -75 16
-96 14 -118 -10z m185 -101 c16 -12 42 -45 57 -72 25 -45 26 -55 21 -130 -6
-95 -37 -191 -83 -261 -30 -45 -77 -85 -102 -85 -14 0 -26 518 -13 554 11 26
15 28 51 23 22 -3 53 -16 69 -29z m23 -679 c48 -38 94 -134 108 -224 16 -98
16 -242 1 -290 -34 -102 -111 -180 -193 -195 -24 -5 -44 -7 -46 -6 -1 2 -3
166 -5 366 l-2 364 25 7 c49 14 76 9 112 -22z"/>
<path d="M3675 2949 c-36 -20 -74 -70 -97 -127 -33 -84 -33 -249 1 -347 21
-60 108 -240 131 -270 18 -23 64 -144 76 -200 35 -159 -5 -364 -83 -425 -25
-19 -35 -21 -90 -15 -61 6 -63 6 -63 -17 0 -16 10 -30 31 -42 40 -24 101 -15
162 24 36 23 52 43 84 106 38 77 38 79 41 215 5 192 -22 284 -146 488 -69 116
-94 198 -95 311 0 77 4 105 23 148 27 62 42 72 109 72 48 0 51 2 51 25 0 47
-85 81 -135 54z"/>
<path d="M1234 2925 l-27 -27 7 -301 c4 -166 11 -414 16 -552 6 -137 10 -311
10 -386 0 -122 2 -138 20 -154 23 -20 47 -14 58 16 5 11 5 53 1 92 -22 213
-36 626 -21 628 4 0 15 2 24 4 24 5 49 -69 83 -245 74 -392 108 -505 153 -517
46 -11 61 51 24 100 -21 30 -164 618 -165 682 -1 40 9 71 48 155 47 100 49
110 53 204 6 138 -9 197 -62 250 -40 41 -70 54 -163 71 -26 5 -37 2 -59 -20z
m151 -75 c34 -28 49 -84 49 -185 0 -110 -14 -183 -51 -263 -24 -51 -66 -92
-81 -78 -9 9 -16 511 -8 533 5 12 15 14 42 10 20 -3 42 -11 49 -17z"/>
<path d="M3997 2926 c-39 -40 -7 -59 108 -64 l92 -4 7 -67 c3 -36 6 -113 6
-171 0 -58 7 -199 15 -315 8 -115 17 -329 21 -475 4 -146 11 -273 16 -282 13
-27 55 -22 74 8 20 30 17 156 -16 699 -11 176 -20 384 -20 463 l0 143 103 -7
c89 -6 105 -4 120 10 12 13 14 22 7 35 -8 16 -31 19 -182 24 -95 4 -209 10
-253 13 -69 6 -84 4 -98 -10z"/>
<path d="M633 2920 c-27 -11 -32 -55 -7 -64 9 -3 42 -6 74 -6 56 0 59 -1 64
-27 3 -16 5 -295 4 -620 l-1 -593 -32 0 c-32 0 -65 -25 -65 -49 0 -24 56 -34
183 -33 149 1 165 5 173 39 10 38 -17 53 -96 53 l-67 0 -8 258 c-7 211 -8 951
-1 959 1 2 16 -1 32 -5 37 -11 78 -1 82 20 8 41 -59 62 -223 72 -49 3 -100 1
-112 -4z"/>
<path d="M1835 2910 c-13 -14 -15 -27 -10 -47 4 -15 10 -321 14 -679 5 -530 9
-654 20 -667 20 -25 140 -23 191 3 60 30 139 116 171 184 47 100 78 358 74
606 -2 139 -8 212 -19 253 -38 140 -170 286 -288 320 -35 11 -70 25 -79 33
-22 20 -53 17 -74 -6z m174 -109 c75 -39 133 -129 173 -268 20 -71 22 -100 23
-338 0 -240 -2 -266 -23 -342 -28 -102 -78 -189 -136 -236 -51 -43 -83 -47
-95 -14 -26 68 -42 1167 -18 1205 11 17 32 15 76 -7z"/>
<path d="M3013 2920 c-25 -10 -30 -39 -11 -58 7 -7 39 -12 75 -12 58 0 63 -2
69 -25 3 -14 4 -175 1 -358 -2 -182 0 -438 6 -568 5 -130 7 -248 3 -262 -5
-21 -13 -26 -42 -29 -24 -2 -42 -10 -51 -25 -13 -20 -12 -23 13 -40 24 -15 47
-18 167 -16 147 2 167 8 167 49 0 32 -27 44 -99 44 -55 0 -61 2 -65 23 -4 19
-19 449 -20 567 0 25 1 176 2 336 l2 291 58 -1 c51 -1 57 1 60 21 5 33 -44 53
-161 63 -124 11 -146 11 -174 0z"/>
<path d="M2595 2893 c-17 -39 -34 -1378 -18 -1394 5 -5 72 -8 158 -7 128 3
149 5 159 21 8 12 8 22 0 35 -12 19 -10 18 -147 27 l-97 7 6 655 c7 694 8 672
-37 673 -9 0 -20 -8 -24 -17z"/>
</g>
</svg>
