<svg xmlns="http://www.w3.org/2000/svg" xml:space="preserve" style="enable-background:new 0 0 117.45 122.88" viewBox="0 0 117.45 122.88">
  <path d="M53.4 91.75c-1.96 0-3.54-1.59-3.54-3.54s1.59-3.54 3.54-3.54h19.85c1.96 0 3.54 1.59 3.54 3.54s-1.59 3.54-3.54 3.54H53.4zm-30.17-3.51c-.8-1.2-.48-2.82.72-3.63 1.2-.8 2.82-.48 3.63.72L29 87.45l5.65-6.88c.92-1.11 2.56-1.27 3.68-.36 1.11.92 1.27 2.56.36 3.68l-7.82 9.51c-.17.22-.38.42-.62.58-1.2.8-2.82.48-3.63-.72l-3.39-5.02zm0-24.9c-.8-1.2-.48-2.82.72-3.63 1.2-.8 2.82-.48 3.63.72L29 62.55l5.65-6.88c.92-1.11 2.56-1.27 3.68-.36 1.11.92 1.27 2.56.36 3.68l-7.82 9.51c-.17.22-.38.42-.62.58-1.2.8-2.82.48-3.63-.72l-3.39-5.02zm0-24.91c-.8-1.2-.48-2.82.72-3.63 1.2-.8 2.82-.48 3.63.72L29 37.64l5.65-6.88c.92-1.11 2.56-1.27 3.68-.36 1.11.92 1.27 2.56.36 3.68l-7.82 9.51c-.17.22-.38.42-.62.58-1.2.8-2.82.48-3.63-.72l-3.39-5.02zm30.17.6c-1.96 0-3.54-1.59-3.54-3.54s1.59-3.54 3.54-3.54h36.29c1.96 0 3.54 1.59 3.54 3.54s-1.59 3.54-3.54 3.54H53.4zM8.22 0h101.02c2.27 0 4.33.92 5.81 2.4 1.48 1.48 2.4 3.54 2.4 5.81v106.44c0 2.27-.92 4.33-2.4 5.81-1.48 1.48-3.54 2.4-5.81 2.4H8.22c-2.27 0-4.33-.92-5.81-2.4C.92 119 0 116.93 0 114.66V8.22C0 5.95.92 3.88 2.4 2.4 3.88.92 5.95 0 8.22 0zm101.02 7.08H8.22c-.32 0-.61.13-.82.34-.21.21-.34.5-.34.82v106.44c0 .32.13.61.34.82.21.21.5.34.82.34h101.02c.32 0 .61-.13.82-.34.21-.21.34-.5.34-.82V8.24c0-.32-.13-.61-.34-.82-.22-.21-.51-.34-.82-.34zM53.4 65.39c-1.96 0-3.54-1.59-3.54-3.54s1.59-3.54 3.54-3.54h36.29c1.96 0 3.54 1.59 3.54 3.54s-1.59 3.54-3.54 3.54H53.4z"/>
</svg>
